<svg xmlns="http://www.w3.org/2000/svg" width="1024" height="500" viewBox="0 0 1024 500">
  <defs>
    <linearGradient id="bg" x1="0" y1="0" x2="1" y2="1">
      <stop offset="0" stop-color="#0a0e1a"/>
      <stop offset="1" stop-color="#111a2e"/>
    </linearGradient>
  </defs>
  <rect width="1024" height="500" fill="url(#bg)"/>
  <g transform="translate(210,250) scale(3.4) translate(-54,-56)">
    <path fill="#f59e0b" d="M54,30 C44,30 36,38 36,48 C36,62 54,82 54,82 C54,82 72,62 72,48 C72,38 64,30 54,30 Z M54,42 C57,42 60,45 60,48 C60,51 57,54 54,54 C51,54 48,51 48,48 C48,45 51,42 54,42 Z"/>
  </g>
</svg>
